<?xml version="1.0" standalone="no"?><!DOCTYPE svg PUBLIC "-//W3C//DTD SVG 1.1//EN" "http://www.w3.org/Graphics/SVG/1.1/DTD/svg11.dtd"><svg t="1554605504276" class="icon" style="" viewBox="0 0 1024 1024" version="1.1" xmlns="http://www.w3.org/2000/svg" p-id="6602" xmlns:xlink="http://www.w3.org/1999/xlink" width="200" height="200"><defs><style type="text/css"></style></defs><path d="M636.2 11.1H269.8l-66.4 113.3h366.4zM670.8 419.2h-36.9c-6.4 0-11.7-5.1-11.7-11.5s5.4-11.5 11.7-11.5h36.9c6.4 0 11.5 5.1 11.5 11.5h13.9c0-14.2-11.5-25.4-25.4-25.4h-36.9c-14.2 0-25.4 11.5-25.4 25.4 0 6.1 2.4 12.2 6.6 16.9 4.9 5.4 11.5 8.3 18.8 8.3h36.9c6.4 0 11.5 5.4 11.5 11.5 0 6.4-5.1 11.7-11.5 11.7h-36.9c-6.4 0-11.7-5.4-11.7-11.7h-13.9c0 14.2 11.5 25.4 25.4 25.4h36.9c14.2 0 25.4-11.5 25.4-25.4 0-6.1-2.4-12.2-6.6-16.9-4.6-5.3-11.2-8.3-18.6-8.3z" fill="#409EFF" p-id="6603"></path><path d="M619.2 369.4L826.3 11.1H683.7L477 369.4zM411.7 482.7L259.4 746.6l-14.3 24.1-0.7 247.3 309.4-535.3z" fill="#409EFF" p-id="6604"></path><path d="M410.5 395.8l-13.9-13.9H322.4l13.8 13.9h23.2V470h14v-74.2H386z" fill="#409EFF" p-id="6605"></path><path d="M510.5 432.9v-51l-13.9 12.8v24.4h-59.5v-37.2l-13.9 12.8V470h13.9v-37.1h59.5V470h13.9v-37.1zM555.9 394.8v75.4h13.9V382" fill="#409EFF" p-id="6606"></path></svg>